<?xml version="1.0" standalone="no"?>
<svg viewBox="0 0 200 200" xmlns="http://www.w3.org/2000/svg">
    <path fill="#1a45a2" d="M40.5,-69.6C53.6,-62.7,65.9,-53.9,74.1,-42C82.2,-30.1,86.2,-15.1,84.1,-1.3C81.9,12.5,73.5,25.1,66.1,38.3C58.7,51.6,52.3,65.5,41.5,75.6C30.6,85.6,15.3,91.8,0.7,90.5C-13.9,89.3,-27.7,80.7,-38.7,70.7C-49.6,60.7,-57.6,49.3,-66.6,37.3C-75.6,25.3,-85.6,12.6,-86.7,-0.6C-87.9,-13.9,-80.1,-27.8,-71.5,-40.6C-62.9,-53.3,-53.5,-64.8,-41.4,-72.3C-29.4,-79.8,-14.7,-83.2,-0.5,-82.4C13.7,-81.6,27.5,-76.5,40.5,-69.6Z" transform="translate(100 100)" />
</svg>